<?xml version="1.0" encoding="UTF-8" standalone="no"?>
<svg
   version="1.1"
   width="2426.9146827772092"
   height="3173.3510487698013"
   viewBox="0 0 2426.9146827772092 3173.3510487698013"
   id="svg49"
   sodipodi:docname="logo.svg"
   inkscape:version="1.2 (dc2aedaf03, 2022-05-15)"
   xmlns:inkscape="http://www.inkscape.org/namespaces/inkscape"
   xmlns:sodipodi="http://sodipodi.sourceforge.net/DTD/sodipodi-0.dtd"
   xmlns="http://www.w3.org/2000/svg"
   xmlns:svg="http://www.w3.org/2000/svg">
  <defs
     id="defs53">
    <rect
       x="384.89678"
       y="1555.9657"
       width="163.78586"
       height="24.567879"
       id="rect333" />
    <rect
       x="253.86809"
       y="1334.8548"
       width="1981.8089"
       height="503.64153"
       id="rect273" />
    <rect
       x="204.73233"
       y="1232.4886"
       width="1846.6856"
       height="454.50577"
       id="rect267" />
  </defs>
  <sodipodi:namedview
     id="namedview51"
     pagecolor="#ffffff"
     bordercolor="#000000"
     borderopacity="0.25"
     inkscape:showpageshadow="2"
     inkscape:pageopacity="0.0"
     inkscape:pagecheckerboard="0"
     inkscape:deskcolor="#d1d1d1"
     showgrid="false"
     inkscape:zoom="0.24422132"
     inkscape:cx="691.99527"
     inkscape:cy="1431.079"
     inkscape:window-width="1920"
     inkscape:window-height="991"
     inkscape:window-x="-9"
     inkscape:window-y="-9"
     inkscape:window-maximized="1"
     inkscape:current-layer="g1368" />
  <g
     transform="matrix(10.151862,0,0,10.340692,-33.394835,103.84523)"
     id="g47">
    <defs
       id="SvgjsDefs3605" />
    <g
       id="SvgjsG3606"
       featureKey="symbolFeature-0"
       transform="matrix(0.8647792,0,0,0.8647792,86.895524,19.123499)"
       fill="#fff0e5" />
    <g
       id="SvgjsG3607"
       featureKey="nameFeature-0"
       transform="matrix(2.7730377,0,0,2.7730377,-10.426626,88.284987)"
       fill="#fff0e5">
      <text
         xml:space="preserve"
         transform="matrix(0.04160521,0,0,0.04160521,0.15384779,-35.443076)"
         id="text265"
         style="white-space:pre;shape-inside:url(#rect267);display:inline;fill:#000000" />
      <text
         xml:space="preserve"
         transform="matrix(0.04160521,0,0,0.04160521,0.15384779,-35.443076)"
         id="text271"
         style="white-space:pre;shape-inside:url(#rect273);display:inline;fill:#000000" />
    </g>
    <g
       id="SvgjsG3609"
       featureKey="sloganFeature-0"
       transform="matrix(0.61773332,0,0,0.61773332,50.049395,332.99782)"
       fill="#fff0e5" />
  </g>
  <g
     id="g1368">
    <rect
       fill="#1ec8aa"
       width="2426.9148"
       height="3173.3511"
       id="rect32"
       style="fill:#401ec8;fill-opacity:1"
       x="-4.0946465"
       y="-2.8056502e-07" />
    <path
       d="M 93.66,7.771 C 93.185,6.19 91.52,5.291 89.937,5.766 l -12.234,3.666 0.43,1.433 -0.913,0.273 c -3.005,1.026 -4.899,3.021 -5.646,5.995 l -0.487,2.393 -64.028,0.015 8.535,35.081 24.919,3.157 c -0.292,0.229 -0.501,0.565 -0.559,0.962 -0.118,0.818 0.449,1.576 1.267,1.694 l 2.383,0.344 c 0.009,10e-4 0.017,0.005 0.025,0.007 1.305,0.228 2.797,1.661 3.081,2.997 l 2.703,10.977 c 0.221,1.178 -0.032,2.439 -0.675,3.377 -0.641,0.932 -1.639,1.527 -2.965,1.771 -0.034,0.006 -0.064,0.02 -0.098,0.028 H 25.619 c -5.347,0 -7.368,0.969 -9.422,2.877 -0.605,0.562 -0.64,1.509 -0.078,2.113 0.294,0.317 0.695,0.479 1.096,0.479 0.364,0 0.729,-0.133 1.018,-0.4 1.039,-0.965 2.021,-1.672 4.598,-1.947 l 1.072,2.067 c -1.031,1.024 -1.67,2.442 -1.67,4.009 0,3.125 2.536,5.658 5.66,5.658 3.122,0 5.656,-2.531 5.656,-5.658 0,-3.121 -2.534,-5.656 -5.656,-5.656 -0.228,0 -0.451,0.018 -0.671,0.043 l -0.266,-0.592 h 39.663 c 0.058,0 0.113,-0.008 0.17,-0.01 l -0.006,0.004 1.141,2.202 c -1.029,1.024 -1.667,2.442 -1.667,4.009 0,3.127 2.53,5.658 5.656,5.658 3.126,0 5.656,-2.531 5.656,-5.658 0,-3.121 -2.53,-5.656 -5.656,-5.656 -0.204,0 -0.405,0.012 -0.604,0.033 L 70.537,81.73 c 0.57,-0.383 1.092,-0.845 1.536,-1.393 1.469,-1.81 2.007,-4.289 1.478,-6.803 l -2.187,-7.385 c -0.723,-2.853 -2.683,-4.588 -5.8,-5.194 l 0.134,0.017 8.792,-43.174 c 0.481,-1.915 1.655,-3.13 3.643,-3.81 l 0.858,-0.257 0.429,1.433 12.234,-3.665 C 93.237,11.021 94.133,9.356 93.66,7.771 Z M 17.996,51.841 16.658,46.34 h 1.338 z m 0,-8.492 H 15.93 l -2.35,-9.66 h 4.416 z m 0,-12.651 h -5.144 l -1.987,-8.167 7.13,-10e-4 v 8.168 z m 8.646,22.309 -5.655,-0.717 v -5.95 h 5.655 z m 0,-9.658 h -5.655 v -9.66 h 5.655 z m 0,-12.651 h -5.655 v -8.169 l 5.655,-0.001 z M 35.29,54.103 29.633,53.386 V 46.34 h 5.657 z m 0,-10.754 h -5.657 v -9.66 h 5.657 z m 0,-12.651 h -5.657 v -8.17 l 5.657,-10e-4 z m 8.648,24.5 -5.657,-0.717 V 46.34 h 5.657 z m 0,-11.849 h -5.657 v -9.66 h 5.657 z m 0,-12.651 h -5.657 v -8.172 l 5.657,-0.001 z M 27.893,87.637 c 0.824,0 1.495,0.672 1.495,1.496 0,0.83 -0.67,1.494 -1.495,1.494 -0.827,0 -1.497,-0.664 -1.497,-1.494 0,-0.824 0.67,-1.496 1.497,-1.496 z M 55.577,33.689 h 5.655 v 9.66 h -5.655 z m 0,12.651 h 5.655 v 11.05 l -5.655,-0.717 z m -8.648,-23.817 5.656,-0.001 v 8.176 h -5.656 z m 0,11.166 h 5.656 v 9.66 h -5.656 z m 0,12.651 h 5.656 v 9.954 l -5.656,-0.717 z m 24.984,41.297 c 0.822,0 1.495,0.672 1.495,1.496 0,0.83 -0.673,1.494 -1.495,1.494 -0.83,0 -1.497,-0.664 -1.497,-1.494 0,-0.824 0.667,-1.496 1.497,-1.496 z m -3.433,-20.696 2.154,7.265 c 0.329,1.63 0.016,3.136 -0.884,4.245 -0.777,0.957 -1.89,1.484 -3.132,1.484 H 51.121 c 0.026,-0.036 0.056,-0.068 0.081,-0.105 1.101,-1.602 1.521,-3.65 1.133,-5.703 L 49.626,63.115 c -0.113,-0.53 -0.329,-1.052 -0.601,-1.555 l 15.542,2.24 c 2.267,0.325 3.432,1.247 3.913,3.141 z M 64.225,53.219 V 46.34 h 1.401 z m 2.01,-9.87 h -2.011 v -9.66 h 3.978 z m 2.577,-12.651 h -4.587 v -8.129 h -2.992 v 8.129 h -5.655 v -8.176 l 14.9,-0.003 z"
       id="path35"
       transform="matrix(8.7791191,0,0,8.9424154,848.75653,301.59544)"
       style="fill:#ffffff" />
    <path
       d="m -1.5313183,-121.54966 c 0,0.49334 0.0034,1.03 0.01006,1.61 0.0067,0.58 -0.01668,1.16 -0.07002,1.74 -0.05334,0.58 -0.15,1.14 -0.29,1.68 -0.14,0.54 -0.35666,1.0167 -0.65,1.43 -0.29334,0.4133 -0.67668,0.74334 -1.15,0.99 -0.47332,0.24666 -1.0633001,0.37 -1.7700001,0.37 h -3.64 v -15 h 3.5 c 0.73334,0 1.3400001,0.10334 1.8200001,0.31 0.48,0.20666 0.87334,0.48666 1.18,0.84 0.30666,0.35334 0.53332,0.76668 0.67998,1.24 0.14666,0.47332 0.24666,0.97668 0.3,1.51 0.05334,0.53332 0.08,1.08 0.08,1.64 v 1.64 z m -1.36,0.14 1.9e-5,-0.85996 c 0,-0.37334 -0.01,-0.76 -0.03,-1.16 -0.02,-0.4 -0.04666,-0.78 -0.08,-1.14 -0.03334,-0.36 -0.07668,-0.62666 -0.13002,-0.8 -0.22666,-0.66666 -0.54,-1.16 -0.94,-1.48 -0.3999995,-0.32 -0.9599995,-0.48 -1.6799995,-0.48 h -2 v 12.16 h 2.26 c 0.29334,0 0.56,-0.0533 0.8,-0.16 0.24,-0.10666 0.4599995,-0.25 0.6599995,-0.43 0.2,-0.18 0.37,-0.38666 0.51,-0.62 0.14,-0.23334 0.25666,-0.47668 0.35,-0.73002 0.06666,-0.17334 0.11666,-0.45668 0.15,-0.85002 0.03334,-0.39334 0.06,-0.81 0.08,-1.25 0.02,-0.44 0.03334,-0.86334 0.04,-1.27 0.0067,-0.40666 0.01,-0.71666 0.010001,-0.93 z m 14.0005003,3.8 c 0,1.4133 -0.31666,2.4434 -0.95,3.09 -0.6333403,0.6466 -1.6633003,0.97 -3.0900003,0.97 -1.3067,0 -2.2634,-0.36 -2.87,-1.08 -0.6066,-0.72 -0.91,-1.7133 -0.91,-2.98 v -7.2 c 0,-1.3733 0.32334,-2.3934 0.97,-3.06 0.64666,-0.6666 1.6633,-1 3.05,-1 1.32,0 2.2834,0.35 2.8900003,1.05 0.6066,0.7 0.91,1.69 0.91,2.97 z m -1.4000003,-0.04 -2e-5,-7.22 c 0,-0.76 -0.2,-1.3933 -0.6,-1.9 -0.4,-0.5067 -1.0067,-0.76 -1.82,-0.76 -0.97334,0 -1.65,0.25334 -2.03,0.76 -0.38,0.50666 -0.57,1.22 -0.57,2.14 v 6.9 c 0,0.38666 0.04334,0.75 0.13,1.09 0.08666,0.34 0.22666,0.63666 0.42,0.89 0.19334,0.25334 0.44,0.45334 0.74,0.6 0.3,0.14666 0.66334,0.22 1.09,0.22 0.93334,0 1.6067,-0.22666 2.02,-0.68 0.4133,-0.45334 0.62,-1.1333 0.62,-2.04 z m 14.5205003,3.92 h -1.56 l -5.2,-11.8 v 11.8 h -1.44 v -15 h 1.44 l 5.22,11.3 0.12,-11.3 h 1.42 z m 6.8205,-12.2 h -1.6 v -1.54 l 1.6,-1.26 z m 12.2605,-1.34 h -3.1 v 13.54 h -1.48 v -13.54 h -3.1 v -1.46 h 7.68 z m 25.681,-1.46 -3.44,15 h -1.28 l -2.5,-12.24 -2.48,12.24 h -1.26 l -3.44,-15 h 1.44 l 2.52,12 2.76,-11.96 -0.02,-0.04 h 0.02 0.96 l 0.11,0.49 c 0.07334,0.32666 0.17,0.75332 0.29,1.28 0.12,0.52668 0.25666,1.1333 0.41,1.82 0.15334,0.6867 0.31334,1.39 0.48,2.11 0.16666,0.72 0.33,1.4333 0.49,2.14 0.16,0.7067 0.30666,1.35 0.44,1.93 0.13334,0.58 0.24668,1.07 0.34002,1.47 0.09334,0.4 0.15334,0.65334 0.18,0.76 l 2.52,-12 h 1.46 z m 11.8005,11.12 c 0,1.4133 -0.31666,2.4434 -0.95,3.09 -0.63334,0.6466 -1.6633,0.97 -3.09,0.97 -1.3067,0 -2.2634,-0.36 -2.87,-1.08 -0.6066,-0.72 -0.91,-1.7133 -0.91,-2.98 v -7.2 c 0,-1.3733 0.32334,-2.3934 0.97,-3.06 0.64666,-0.6666 1.6633,-1 3.05,-1 1.32,0 2.2834,0.35 2.89,1.05 0.6066,0.7 0.91,1.69 0.91,2.97 z m -1.4,-0.04 -2e-5,-7.22 c 0,-0.76 -0.2,-1.3933 -0.6,-1.9 -0.4,-0.5067 -1.0067,-0.76 -1.82,-0.76 -0.97334,0 -1.65,0.25334 -2.03,0.76 -0.38,0.50666 -0.57,1.22 -0.57,2.14 v 6.9 c 0,0.38666 0.04334,0.75 0.13,1.09 0.08666,0.34 0.22666,0.63666 0.42,0.89 0.19334,0.25334 0.44,0.45334 0.74,0.6 0.3,0.14666 0.66334,0.22 1.09,0.22 0.93334,0 1.6067,-0.22666 2.02,-0.68 0.4133,-0.45334 0.62,-1.1333 0.62,-2.04 z m 15.300497,3.92 -1.72,-2e-5 -3.14,-6.06 h -2.6 v 6.06 h -1.34 v -15 h 3.44 c 1.3733,0 2.46,0.39334 3.26,1.18 0.8,0.78666 1.2,1.8667 1.2,3.24 0,0.42666 -0.0567,0.86 -0.17,1.3 -0.11334,0.44 -0.27668,0.85334 -0.49002,1.24 -0.21334,0.38666 -0.47668,0.73666 -0.79002,1.05 -0.31334,0.31334 -0.67,0.55668 -1.07,0.73002 z m -2.32,-10.68 c 0,-0.46666 -0.08,-0.88664 -0.24,-1.26 -0.16,-0.37336 -0.38,-0.69 -0.66,-0.95 -0.28,-0.26 -0.61334,-0.46 -1,-0.6 -0.38666,-0.14 -0.80666,-0.21 -1.26,-0.21 h -1.98 v 6.26 h 2.1 c 1.0667,0 1.84,-0.28666 2.32,-0.86 0.48,-0.57334 0.72,-1.3667 0.72,-2.38 z m 15.560501,10.68 -1.72,-2e-5 -3.14,-6.06 h -2.6 v 6.06 h -1.340001 v -15 h 3.440001 c 1.3733,0 2.46,0.39334 3.26,1.18 0.8,0.78666 1.2,1.8667 1.2,3.24 0,0.42666 -0.0567,0.86 -0.17,1.3 -0.11334,0.44 -0.27668,0.85334 -0.49002,1.24 -0.21334,0.38666 -0.47668,0.73666 -0.79002,1.05 -0.31334,0.31334 -0.67,0.55668 -1.07,0.73002 z m -2.32,-10.68 c 0,-0.46666 -0.08,-0.88664 -0.24,-1.26 -0.16,-0.37336 -0.38,-0.69 -0.66,-0.95 -0.28,-0.26 -0.61334,-0.46 -1,-0.6 -0.38666,-0.14 -0.80666,-0.21 -1.26,-0.21 h -1.98 v 6.26 h 2.1 c 1.0667,0 1.84,-0.28666 2.32,-0.86 0.48,-0.57334 0.72,-1.3667 0.72,-2.38 z m 13.7205,-4.32 -3.54,8.16 v 6.84 h -1.44 v -6.84 l -3.54,-8.16 h 1.6 l 2.64,6.44 2.68,-6.44 z m 6.2605,15 -1.58,1.24 v -2.78 h 1.58 z m 25.681,-15 -3.44,15 h -1.28 l -2.5,-12.24 -2.48,12.24 h -1.26 l -3.44,-15 h 1.44 l 2.52,12 2.76,-11.96 -0.02,-0.04 h 0.02 0.96 l 0.11,0.49 c 0.0733,0.32666 0.17,0.75332 0.29,1.28 0.12,0.52668 0.25666,1.1333 0.41,1.82 0.15334,0.6867 0.31334,1.39 0.48,2.11 0.16666,0.72 0.33,1.4333 0.49,2.14 0.16,0.7067 0.30666,1.35 0.44,1.93 0.13334,0.58 0.24668,1.07 0.34002,1.47 0.0933,0.4 0.15334,0.65334 0.18,0.76 l 2.52,-12 h 1.46 z m 11.5605,15 h -7.5 v -15 h 7.36 v 1.52 h -5.98 v 5.16 h 5.94 v 1.3 h -5.94 v 5.5 h 6.12 z m 19.201,0 h -1.52 l -0.02,-6.8 h -4.8 l 0.02,6.8 h -1.5 v -15 h 1.5 l -0.02,6.78 h 4.8 l 0.02,-6.78 h 1.52 z m 13.5605,0 h -1.4 l -1.06,-4.3 h -4.36 l -1.06,4.3 h -1.36 l 4.06,-15 h 1.14 z m -2.8,-5.64 -1.78,-7.42 -1.9,7.42 z m 14.2405,-9.36 -4.08,15 h -1.14 l -4.06,-15 h 1.42 l 3.2,12.32 3.28,-12.32 z m 11.6005,15 h -7.5 v -15 h 7.36 v 1.52 h -5.98 v 5.16 h 5.94 v 1.3 h -5.94 v 5.5 h 6.12 z m 12.881,0 h -1.5 v -15 h 1.5 z m 12.2805,-13.54 h -3.1 v 13.54 h -1.48 v -13.54 h -3.1 v -1.46 h 7.68 z m 6.1205,-1.46 -0.1,11.74 h -1.26 l -0.1,-11.74 z m 0,15 h -1.46 v -1.54 h 1.46 z"
       id="path44"
       transform="matrix(6.2711434,0,0,6.38779,474.69972,3547.2731)"
       style="fill:#ffffff" />
    <text
       xml:space="preserve"
       style="font-size:561.175px;fill:#f2f2f2;stroke-width:46.7646"
       x="306.25229"
       y="1856.5125"
       id="text279"
       transform="scale(0.95220085,1.0501986)"><tspan
         sodipodi:role="line"
         id="tspan277"
         x="306.25229"
         y="1856.5125"
         style="fill:#ffffff;stroke-width:46.7646">OnShop</tspan></text>
  </g>
  <text
     xml:space="preserve"
     id="text331"
     style="white-space:pre;shape-inside:url(#rect333);display:inline;fill:#000000" />
</svg>
